# xmcd
# 
# Track frame offsets:
#     150
#     24252
#     38837
#     55200
#     68352
#     89312
#     112845
#     127512
#     140120
#     149917
# 
# Disc length: 2267
# 
# Revision: 5
# Processed by: cddbd v1.5.2PL0 Copyright (c) Steve Scherf et al.
# Submitted via: fre:ac v1.0.31
# 
DISCID=8108d90a
DTITLE=山下久美子 - Baby alone
DYEAR=1990
DGENRE=Pop
TTITLE0=サヨナラ(ADIÓS)
TTITLE1=優しくしたいの
TTITLE2=逢いたい
TTITLE3=微笑みのその前で
TTITLE4=C’est la vie
TTITLE5=遠い夜明け
TTITLE6=HEAVEN
TTITLE7=踊り明かしたい
TTITLE8=LADY JEAN
TTITLE9=Stop Stop Rock’n Roll
EXTD=
EXTT0=
EXTT1=
EXTT2=
EXTT3=
EXTT4=
EXTT5=
EXTT6=
EXTT7=
EXTT8=
EXTT9=
PLAYORDER=
